<?xml version="1.0" encoding="UTF-8"?>
<svg width="70px" height="23px" viewBox="0 0 70 23" version="1.1" xmlns="http://www.w3.org/2000/svg" xmlns:xlink="http://www.w3.org/1999/xlink">
    <!-- Generator: Sketch 48.1 (47250) - http://www.bohemiancoding.com/sketch -->
    <title>Combined Shape</title>
    <desc>Created with Sketch.</desc>
    <defs></defs>
    <g id="Footer" stroke="none" stroke-width="1" fill="none" fill-rule="evenodd" transform="translate(0.000000, -22.000000)">
        <g id="aroe" transform="translate(0.000000, 22.000000)" fill="#1E232F">
            <path d="M39.5149912,19.0106545 C38.0253411,19.0106545 36.9002135,18.4535769 36.1806368,17.3592085 C35.5320709,16.3744292 35.2164671,14.9634703 35.2164671,13.0608828 C35.2164671,9.07762557 36.6761348,7.06392694 39.5449735,7.06392694 C42.3633157,7.06392694 43.793001,9.07762557 43.793001,13.0608828 C43.7819549,17.0060883 42.3538476,19.0106545 39.5149912,19.0106545 M45.9517312,6.57229833 C46.6413255,7.36986301 47.1589158,8.32572298 47.4934559,9.43074581 C47.8279959,10.5449011 48,11.761035 48,13.0608828 C48,14.3500761 47.8279959,15.56621 47.4934559,16.6621005 C47.1589158,17.7473364 46.6413255,18.7047184 45.9517312,19.4931507 C45.2716049,20.281583 44.3910703,20.9041096 43.3369535,21.3409437 C42.2717906,21.7762557 40.9935951,22 39.5149912,22 C38.0348092,22 36.7471456,21.7762557 35.6819827,21.3409437 C34.6168198,20.9041096 33.7362852,20.281583 33.0466908,19.4931507 C32.3586745,18.695586 31.8410842,17.7473364 31.5065441,16.6621005 C31.1720041,15.5768645 31,14.3592085 31,13.0608828 C31,11.7503805 31.1720041,10.5357686 31.5065441,9.43074581 C31.8410842,8.3348554 32.3586745,7.36986301 33.0466908,6.57229833 C33.7362852,5.77321157 34.6168198,5.14155251 35.6819827,4.68645358 C36.7471456,4.23287671 38.0348092,4 39.5149912,4 C40.985705,4 42.2717906,4.23287671 43.3259074,4.68645358 C44.3800241,5.14155251 45.2637148,5.77321157 45.9517312,6.57229833 Z M56.6065597,4 C59.5120589,4 61.9134147,5.12300549 63.3755875,7.15170958 C64.5770507,8.80202617 65.0717708,10.655973 64.9916732,13.1481638 C64.9806795,13.3426762 64.9712562,13.7696919 64.9602624,14.1024905 L52.1980537,14.1024905 L52.1870599,14.3349937 C52.1572196,15.7436893 52.7116203,17.0779232 53.6602265,17.921317 C54.5287352,18.6811313 55.5370219,19.0610384 56.6473937,19.0610384 C58.049886,19.0610384 58.9074009,18.8027016 59.6031502,18.1538202 C59.9361047,17.8468552 60.1889616,17.5049388 60.3695738,17.1159139 L64.374451,17.1159139 C64.1027475,18.0231321 63.4776726,19.0336851 62.9531122,19.6081047 C61.5396261,21.1566062 59.320453,22 56.718068,22 C54.3983803,22 52.4807509,21.3040101 50.8662357,19.8953145 C49.0208511,18.2647531 48,15.8272689 48,13.0281131 C48,10.2198396 48.9596,7.78235542 50.684053,6.15939215 C52.1870599,4.7506965 54.2350442,4 56.6065597,4 Z M52.1477964,11.4613761 L60.8941341,11.4613761 L60.8831404,11.2197552 C60.8438769,9.92351203 60.4606651,8.97830308 59.6424137,8.15314479 C58.9183947,7.43891938 57.8582801,7.06813001 56.5767194,7.06813001 C55.1648039,7.06813001 53.9335005,7.59696074 53.1969172,8.50569861 C52.4807509,9.34757282 52.1980537,10.0906712 52.1572196,11.2197552 L52.1477964,11.4613761 Z M67,22 L67,19 L70,19 L70,22 L67,22 Z M31,3.70106413 L31,7.3266592 L30.9301296,7.3266592 C29.5622234,7.3266592 28.5359056,7.99355923 27.9179412,8.55726687 C26.6105892,9.73242789 26.4615325,11.9857183 26.4615325,13.5828899 L26.4615325,21.9815178 L26.4506638,21.9815178 L26.4615325,22 L22.0224361,22 L17.1656704,13.9679362 L15.4297803,11.0554467 L11,3.67180062 L13.2156665,0 L22.4121574,15.2539905 L22.4121574,3.69182302 L26.4009782,3.69182302 L26.3916621,5.59857183 C26.3916621,5.59857183 27.4490335,3.75805097 31,3.70106413 Z M16,19.1774145 L6.4881234,19.1774145 L4.31834958,23 L0,23 L9.06520299,7 L11.2243778,10.813017 L8.1218889,16.2877504 L14.3465506,16.2877504 L16,19.1774145 Z" id="Combined-Shape"></path>
        </g>
    </g>
</svg>