<?xml version="1.0" encoding="UTF-8"?>
<svg width="25px" height="24px" viewBox="0 0 25 24" version="1.1" xmlns="http://www.w3.org/2000/svg" xmlns:xlink="http://www.w3.org/1999/xlink">
    <!-- Generator: Sketch 48.1 (47250) - http://www.bohemiancoding.com/sketch -->
    <title>Settings</title>
    <desc>Created with Sketch.</desc>
    <defs></defs>
    <g id="Hiragana---Dark-mode" stroke="none" stroke-width="1" fill="none" fill-rule="evenodd" transform="translate(-1384.000000, -32.000000)">
        <g id="Settings-Dark" transform="translate(1384.000000, 32.000000)" fill="#F6EFD6">
            <g id="Settings">
                <path d="M12.3870968,0 C11.9612903,0 11.6129032,0.348387097 11.6129032,0.774193548 L11.6129032,4.72258065 C9.83225806,5.07096774 8.51612903,6.65806452 8.51612903,8.51612903 C8.51612903,10.3741935 9.83225806,11.9612903 11.6129032,12.3096774 L11.6129032,23.2258065 C11.6129032,23.6516129 11.9612903,24 12.3870968,24 C12.8129032,24 13.1612903,23.6516129 13.1612903,23.2258065 L13.1612903,12.3096774 C14.9419355,11.9612903 16.2580645,10.3741935 16.2580645,8.51612903 C16.2580645,6.65806452 14.9419355,5.07096774 13.1612903,4.72258065 L13.1612903,0.774193548 C13.1612903,0.348387097 12.8129032,0 12.3870968,0 Z M14.7096774,8.51612903 C14.7096774,9.79354839 13.6645161,10.8387097 12.3870968,10.8387097 C11.1096774,10.8387097 10.0645161,9.79354839 10.0645161,8.51612903 C10.0645161,7.23870968 11.1096774,6.19354839 12.3870968,6.19354839 C13.6645161,6.19354839 14.7096774,7.23870968 14.7096774,8.51612903 Z" id="Shape" fill-rule="nonzero"></path>
                <path d="M21.6774194,11.6903226 L21.6774194,0.774193548 C21.6774194,0.348387097 21.3290323,0 20.9032258,0 C20.4774194,0 20.1290323,0.348387097 20.1290323,0.774193548 L20.1290323,11.6903226 C18.3483871,12.0387097 17.0322581,13.6258065 17.0322581,15.483871 C17.0322581,17.3419355 18.3483871,18.9290323 20.1290323,19.2774194 L20.1290323,23.2258065 C20.1290323,23.6516129 20.4774194,24 20.9032258,24 C21.3290323,24 21.6774194,23.6516129 21.6774194,23.2258065 L21.6774194,19.2774194 C23.4580645,18.9290323 24.7741935,17.3419355 24.7741935,15.483871 C24.7741935,13.6258065 23.4580645,12.0387097 21.6774194,11.6903226 Z M20.9032258,17.8064516 C19.6258065,17.8064516 18.5806452,16.7612903 18.5806452,15.483871 C18.5806452,14.2064516 19.6258065,13.1612903 20.9032258,13.1612903 C22.1806452,13.1612903 23.2258065,14.2064516 23.2258065,15.483871 C23.2258065,16.7612903 22.1806452,17.8064516 20.9032258,17.8064516 Z" id="Shape" fill-rule="nonzero"></path>
                <path d="M3.09677419,19.2774194 L3.09677419,23.2258065 C3.09677419,23.6516129 3.44516129,24 3.87096774,24 C4.29677419,24 4.64516129,23.6516129 4.64516129,23.2258065 L4.64516129,19.2774194 C6.42580645,18.9290323 7.74193548,17.3419355 7.74193548,15.483871 C7.74193548,13.6258065 6.42580645,12.0387097 4.64516129,11.6903226 L4.64516129,0.774193548 C4.64516129,0.348387097 4.29677419,0 3.87096774,0 C3.44516129,0 3.09677419,0.348387097 3.09677419,0.774193548 L3.09677419,11.6903226 C1.31612903,12.0387097 0,13.6258065 0,15.483871 C0,17.3419355 1.31612903,18.9290323 3.09677419,19.2774194 Z M3.87096774,13.1612903 C5.1483871,13.1612903 6.19354839,14.2064516 6.19354839,15.483871 C6.19354839,16.7612903 5.1483871,17.8064516 3.87096774,17.8064516 C2.59354839,17.8064516 1.5483871,16.7612903 1.5483871,15.483871 C1.5483871,14.2064516 2.59354839,13.1612903 3.87096774,13.1612903 Z" id="Shape" fill-rule="nonzero"></path>
            </g>
        </g>
    </g>
</svg>